<?xml version="1.0" standalone="no"?>
<!DOCTYPE svg PUBLIC "-//W3C//DTD SVG 20010904//EN"
 "http://www.w3.org/TR/2001/REC-SVG-20010904/DTD/svg10.dtd">
<svg version="1.0" xmlns="http://www.w3.org/2000/svg"
 width="424.000000pt" height="424.000000pt" viewBox="0 0 424.000000 424.000000"
 preserveAspectRatio="xMidYMid meet">
<metadata>
Created by potrace 1.11, written by Peter Selinger 2001-2013
</metadata>
<g transform="translate(0.000000,424.000000) scale(0.100000,-0.100000)"
fill="#000000" stroke="none">
<path d="M1934 4001 c-2 -2 -23 -5 -46 -6 -67 -5 -161 -15 -178 -20 -8 -2 -33
-6 -55 -9 -22 -4 -51 -8 -65 -11 -14 -3 -35 -7 -47 -9 -109 -21 -483 -141
-483 -156 0 -3 19 -5 43 -6 58 -1 190 -15 200 -21 4 -2 20 -7 35 -9 111 -20
301 -107 421 -192 85 -61 219 -195 271 -272 13 -19 29 -38 35 -42 5 -4 6 -8 1
-8 -5 0 -2 -8 6 -17 18 -21 97 -178 102 -202 2 -9 6 -25 10 -36 29 -76 42
-133 50 -210 2 -22 5 -40 6 -40 1 0 4 -45 6 -100 3 -89 11 -200 14 -200 1 0 3
-11 6 -25 2 -14 11 -42 19 -62 8 -21 12 -38 9 -38 -4 0 -1 -7 6 -15 7 -8 10
-15 7 -15 -7 0 52 -122 68 -140 8 -8 14 -19 16 -25 6 -33 146 -193 214 -245
122 -93 256 -154 415 -188 39 -8 300 -8 345 1 100 19 325 108 325 129 0 4 5 8
11 8 11 0 78 49 121 89 9 9 23 21 30 27 7 6 31 33 53 59 22 27 46 54 53 61 6
7 12 17 12 22 0 5 9 17 20 27 10 9 18 20 18 24 -1 3 11 31 27 61 16 30 29 57
30 60 0 3 3 10 7 16 4 6 9 21 12 35 3 13 12 45 20 71 8 25 12 49 9 52 -4 3 -2
6 3 6 5 0 10 21 12 48 6 101 7 212 2 212 -3 0 -5 12 -6 28 -1 39 -13 123 -20
133 -3 5 -8 21 -10 36 -3 15 -8 31 -12 37 -3 6 -7 16 -8 21 -1 6 -10 28 -19
50 -10 22 -19 45 -20 50 -1 6 -16 33 -32 60 -16 28 -32 58 -36 68 -3 9 -11 17
-16 17 -5 0 -13 10 -17 22 -3 12 -12 27 -18 34 -6 6 -27 31 -46 55 -82 102
-280 278 -360 319 -14 7 -27 16 -30 20 -3 3 -25 17 -50 31 -25 13 -47 26 -50
29 -9 10 -193 97 -260 123 -81 32 -187 68 -219 74 -14 2 -28 6 -33 9 -4 3 -18
8 -30 10 -133 32 -219 49 -293 59 -23 3 -50 7 -60 9 -75 14 -539 29 -551 17z"/>
<path d="M997 3554 c-1 -1 -24 -5 -52 -8 -27 -4 -61 -9 -75 -12 -46 -10 -185
-59 -188 -66 -2 -5 -10 -8 -19 -8 -8 0 -27 -8 -41 -18 -15 -10 -39 -24 -54
-31 -15 -8 -37 -22 -47 -33 -11 -10 -22 -18 -25 -18 -3 0 -17 -11 -32 -25 -15
-14 -40 -36 -56 -48 -15 -12 -28 -25 -28 -29 0 -4 -13 -21 -30 -38 -47 -48
-132 -183 -145 -232 -2 -5 -4 -11 -5 -15 -1 -5 -2 -11 -1 -15 0 -5 -3 -8 -8
-8 -9 0 -37 -97 -33 -112 1 -5 -2 -8 -6 -8 -7 0 -13 -39 -15 -97 -1 -13 -4
-23 -7 -23 -3 0 -5 -41 -4 -91 3 -121 22 -237 52 -319 3 -8 6 -19 7 -25 0 -5
6 -20 13 -32 7 -13 9 -23 5 -23 -4 0 -3 -4 2 -8 6 -4 19 -27 30 -52 11 -25 22
-47 26 -50 3 -3 14 -21 24 -40 18 -34 50 -83 70 -106 6 -6 24 -28 40 -49 54
-68 219 -225 236 -225 4 0 12 -6 16 -12 4 -7 15 -17 24 -23 8 -5 47 -31 85
-56 191 -129 482 -253 712 -304 118 -27 173 -38 202 -41 19 -2 48 -6 65 -10
16 -4 46 -8 65 -9 19 -2 78 -6 130 -11 152 -12 391 -7 530 11 19 2 56 7 82 10
26 4 61 10 77 15 16 4 31 6 34 4 2 -3 15 0 29 5 14 5 42 12 64 15 44 7 175 42
214 57 14 5 35 11 47 13 12 3 37 12 55 20 18 9 58 25 88 36 30 10 53 20 50 21
-3 1 -18 2 -35 4 -97 8 -174 17 -205 25 -19 5 -46 11 -60 14 -88 17 -245 84
-331 142 -28 19 -54 34 -57 34 -8 0 -120 98 -170 149 -57 58 -132 154 -132
169 0 7 -4 12 -10 12 -5 0 -10 7 -10 15 0 8 -3 15 -8 15 -4 0 -16 20 -27 45
-11 25 -24 45 -29 45 -5 0 -6 3 -3 7 4 3 3 11 -1 17 -12 15 -50 117 -54 141
-2 11 -6 22 -9 25 -6 5 -19 63 -22 103 -1 9 -4 17 -7 17 -6 0 -6 4 -15 180 -9
191 -9 190 -17 190 -4 0 -5 9 -3 20 2 11 0 20 -4 20 -5 0 -7 11 -6 25 2 14 0
25 -4 25 -4 0 -14 25 -21 55 -7 30 -17 55 -22 55 -4 0 -8 6 -8 13 0 18 -24 67
-32 67 -5 0 -8 7 -8 15 0 8 -8 24 -17 35 -10 11 -17 23 -16 25 7 14 -176 200
-244 248 -76 53 -200 113 -273 132 -64 17 -110 26 -154 31 -50 5 -186 10 -189
8z"/>
<path d="M3590 1236 c-6 -6 -10 -7 -10 -4 0 3 -26 -2 -57 -12 -57 -17 -58 -18
-64 -61 -4 -24 -3 -45 2 -47 4 -2 6 -9 3 -16 -9 -23 -9 -146 -1 -146 5 0 5 -4
2 -10 -10 -16 -12 -80 -3 -80 5 0 6 -5 3 -10 -10 -16 -11 -140 -2 -140 5 0 5
-4 2 -10 -10 -16 -12 -80 -3 -80 5 0 6 -5 3 -10 -10 -16 -11 -140 -2 -140 5 0
5 -4 2 -10 -10 -16 -12 -81 -3 -86 5 -3 6 -9 3 -13 -2 -5 36 -8 85 -8 55 1 90
5 91 12 1 5 2 55 4 110 1 55 3 104 4 108 0 5 17 -11 37 -35 20 -23 57 -67 82
-97 92 -106 75 -97 190 -98 56 0 102 3 102 7 0 4 -8 16 -17 27 -10 11 -38 44
-63 73 -25 29 -49 57 -55 64 -5 6 -35 40 -65 75 -30 36 -65 76 -77 89 -13 14
-23 29 -23 33 0 5 0 11 0 14 0 3 2 5 4 6 3 0 31 27 64 59 33 32 62 58 64 57 1
-1 30 24 63 56 l59 57 -66 0 c-63 0 -67 -1 -111 -42 -72 -68 -168 -152 -181
-160 -9 -5 -12 50 -11 220 0 125 -1 235 -3 244 -4 18 -36 20 -52 4z"/>
<path d="M525 1169 c-118 -15 -237 -71 -280 -131 -8 -13 -15 -19 -15 -14 0 17
-41 -45 -67 -100 -22 -49 -26 -70 -25 -153 0 -113 4 -137 38 -204 48 -93 182
-196 279 -213 17 -2 38 -7 47 -10 31 -9 134 -6 199 7 65 12 179 64 179 81 0 5
4 7 8 4 8 -5 27 15 92 93 11 13 20 30 20 38 0 7 5 13 11 13 5 0 8 4 4 9 -3 5
-1 12 5 16 6 4 8 11 5 16 -4 5 -2 9 4 9 5 0 8 8 6 18 -1 9 1 22 5 27 8 12 10
156 1 170 -3 6 -6 16 -7 23 -2 8 -6 21 -10 30 -4 9 -8 22 -9 28 -6 26 -57 94
-98 130 -102 89 -248 131 -392 113z m164 -90 c21 -10 46 -30 57 -42 25 -31 57
-87 48 -87 -3 0 -2 -6 4 -12 30 -37 38 -233 12 -328 -35 -131 -115 -204 -220
-202 -70 2 -105 15 -146 56 -23 23 -79 116 -70 116 3 0 1 11 -4 26 -25 65 -28
210 -6 299 2 6 8 23 14 38 7 16 12 31 12 34 0 11 55 83 64 83 5 0 17 6 25 14
42 37 144 40 210 5z"/>
<path d="M1859 1097 c-25 -67 -81 -132 -121 -142 -67 -17 -58 -72 11 -69 24 1
41 -3 42 -10 0 -6 2 -105 3 -221 2 -125 7 -221 14 -236 37 -89 205 -101 296
-21 19 17 34 32 33 34 -1 2 12 -11 28 -30 17 -18 48 -39 70 -47 55 -19 146
-12 191 14 43 26 44 26 44 3 0 -16 10 -18 89 -19 59 0 91 3 93 11 9 27 0 483
-10 508 -13 31 -65 72 -107 83 -54 14 -59 15 -115 17 -117 2 -210 -30 -260
-90 -22 -27 -27 -39 -20 -57 5 -13 7 -25 4 -28 -3 -3 7 -14 22 -26 31 -25 81
-27 111 -6 19 13 37 61 35 92 -1 5 9 18 20 31 21 22 60 28 93 16 25 -10 45
-59 45 -112 l0 -48 -87 -29 c-152 -51 -228 -105 -248 -177 -2 -5 -3 -22 -4
-38 -1 -30 -1 -30 -26 -14 -14 9 -25 12 -25 8 0 -11 -57 -44 -75 -44 -8 0 -17
10 -21 22 -10 34 -12 118 -2 118 5 0 6 5 2 11 -9 16 -11 229 -1 229 4 0 3 9
-3 19 -15 28 3 36 80 36 l65 0 2 32 c3 40 -5 45 -75 45 -31 0 -61 3 -67 7 -12
7 -15 101 -3 101 5 0 6 5 2 12 -5 7 -7 25 -6 40 2 23 -2 28 -20 29 -13 1 -35
2 -50 3 -24 2 -29 -4 -49 -57z m616 -447 c3 -5 1 -10 -5 -10 -6 0 -8 -5 -4
-12 4 -6 7 -26 7 -45 -1 -18 -2 -46 -2 -63 -2 -66 -137 -105 -139 -40 -1 3 -5
17 -11 32 -8 22 -6 32 12 55 31 40 37 45 82 70 46 26 51 27 60 13z"/>
<path d="M3062 964 c-34 -7 -72 -20 -84 -28 -24 -17 -42 -21 -34 -8 13 21 -15
31 -91 33 -90 2 -108 -4 -94 -29 5 -9 5 -26 1 -37 -5 -12 -5 -28 0 -35 4 -7 4
-25 0 -41 -5 -15 -6 -30 -3 -33 7 -7 9 -86 2 -86 -3 0 -4 -15 -1 -32 2 -18 2
-44 2 -58 -1 -14 -3 -41 -4 -60 -1 -19 2 -41 7 -47 6 -9 5 -13 -3 -13 -9 0
-10 -3 -1 -13 6 -8 9 -16 6 -19 -7 -7 -12 -98 -5 -99 38 -8 171 -5 177 4 4 6
7 108 7 226 l1 215 45 28 c67 41 95 43 120 8 18 -25 21 -46 22 -128 1 -54 -2
-103 -5 -109 -4 -6 -1 -14 5 -17 10 -5 10 -7 1 -12 -7 -3 -9 -12 -6 -20 3 -8
6 -56 7 -107 l1 -92 90 0 90 0 0 234 c0 187 -3 240 -15 265 -47 101 -120 134
-238 110z"/>
<path d="M1335 961 c-50 -13 -108 -47 -148 -88 -39 -38 -84 -113 -70 -113 5 0
1 -5 -7 -10 -11 -7 -15 -31 -17 -92 -2 -75 1 -90 27 -142 34 -66 84 -117 149
-148 35 -17 64 -22 126 -22 115 0 163 27 256 142 5 6 8 12 5 12 -2 0 4 17 14
37 19 39 18 59 -3 60 -7 0 -24 4 -39 8 -23 6 -29 3 -44 -27 -22 -43 -61 -90
-88 -105 -11 -7 -40 -12 -64 -13 -38 0 -48 5 -87 45 -36 38 -46 56 -58 113
-16 71 -17 139 -4 160 5 6 5 12 2 12 -17 0 42 81 68 94 55 26 113 5 103 -36
-2 -10 0 -18 4 -18 4 0 6 -8 3 -18 -6 -25 47 -70 78 -66 13 1 32 3 41 3 9 1
30 12 46 26 26 22 29 29 23 58 -13 56 -29 75 -87 103 -60 29 -168 41 -229 25z"/>
</g>
</svg>
